<svg width="55" height="50" viewBox="0 0 55 50" fill="none" xmlns="http://www.w3.org/2000/svg">
<path d="M33.8718 26.9072L28.7155 22.2197C28.3932 21.9268 27.9561 21.7622 27.5004 21.7622C27.0446 21.7622 26.6075 21.9268 26.2852 22.2197L21.129 26.9072C20.8159 27.2019 20.6426 27.5966 20.6465 28.0062C20.6505 28.4159 20.8312 28.8078 21.1499 29.0975C21.4686 29.3872 21.8996 29.5516 22.3503 29.5551C22.801 29.5587 23.2351 29.4012 23.5593 29.1166L25.7816 27.0962V35.7791C25.7816 36.1935 25.9627 36.5909 26.285 36.8839C26.6074 37.177 27.0445 37.3416 27.5004 37.3416C27.9562 37.3416 28.3934 37.177 28.7157 36.8839C29.038 36.5909 29.2191 36.1935 29.2191 35.7791V27.0962L31.4415 29.1166C31.7656 29.4012 32.1998 29.5587 32.6504 29.5551C33.1011 29.5516 33.5322 29.3872 33.8508 29.0975C34.1695 28.8078 34.3503 28.4159 34.3542 28.0062C34.3581 27.5966 34.1849 27.2019 33.8718 26.9072Z" fill="#27AE60"/>
<path d="M42.9688 15.6252C42.3632 15.6245 41.7588 15.6721 41.1623 15.7674C40.7965 12.8605 39.3206 10.1623 36.9916 8.14293C34.6627 6.12352 31.6283 4.91079 28.417 4.71598C25.2057 4.52117 22.0209 5.35662 19.4175 7.07681C16.814 8.79701 14.9568 11.2929 14.1694 14.1299C13.7449 14.0849 13.3179 14.0625 12.8906 14.0627C9.92766 14.0627 7.08605 15.1327 4.99092 17.0374C2.89578 18.942 1.71875 21.5253 1.71875 24.2189C1.71875 26.9125 2.89578 29.4958 4.99092 31.4005C7.08605 33.3052 9.92766 34.3752 12.8906 34.3752H18.9062C19.3621 34.3752 19.7993 34.2106 20.1216 33.9175C20.4439 33.6245 20.625 33.2271 20.625 32.8127C20.625 32.3983 20.4439 32.0009 20.1216 31.7078C19.7993 31.4148 19.3621 31.2502 18.9062 31.2502H12.8906C10.8393 31.2502 8.87207 30.5094 7.4216 29.1908C5.97112 27.8722 5.15625 26.0837 5.15625 24.2189C5.15625 22.3541 5.97112 20.5657 7.4216 19.2471C8.87207 17.9285 10.8393 17.1877 12.8906 17.1877C13.6232 17.1866 14.3519 17.2845 15.0528 17.4783C15.295 17.5454 15.5506 17.5631 15.8012 17.53C16.0518 17.4968 16.2913 17.4138 16.5025 17.2867C16.7137 17.1597 16.8914 16.9918 17.0229 16.795C17.1544 16.5983 17.2364 16.3776 17.2631 16.1486C17.5787 13.7853 18.8714 11.6197 20.8789 10.0911C22.8865 8.56258 25.4585 7.78557 28.0732 7.91777C30.6878 8.04998 33.1492 9.0815 34.9579 10.803C36.7666 12.5246 37.7872 14.8072 37.8125 17.1877C37.8177 17.3399 37.8119 17.4924 37.7953 17.6439C37.7534 17.9203 37.7936 18.2018 37.9118 18.4592C38.0299 18.7166 38.2218 18.9406 38.4673 19.1079C38.7129 19.2751 39.0032 19.3796 39.3082 19.4104C39.6131 19.4412 39.9216 19.3972 40.2016 19.283C41.0712 18.927 42.015 18.7452 42.9688 18.7502C44.7921 18.7502 46.5408 19.4087 47.8301 20.5808C49.1194 21.7529 49.8438 23.3426 49.8438 25.0002C49.8438 26.6578 49.1194 28.2475 47.8301 29.4196C46.5408 30.5917 44.7921 31.2502 42.9688 31.2502H36.0938C35.6379 31.2502 35.2007 31.4148 34.8784 31.7078C34.5561 32.0009 34.375 32.3983 34.375 32.8127C34.375 33.2271 34.5561 33.6245 34.8784 33.9175C35.2007 34.2106 35.6379 34.3752 36.0938 34.3752H42.9688C45.7038 34.3752 48.3268 33.3875 50.2608 31.6293C52.1948 29.8712 53.2812 27.4866 53.2812 25.0002C53.2812 22.5138 52.1948 20.1292 50.2608 18.3711C48.3268 16.6129 45.7038 15.6252 42.9688 15.6252Z" fill="#828282"/>
</svg>
